<?xml version="1.0" encoding="UTF-8"?><svg xmlns="http://www.w3.org/2000/svg" viewBox="0 0 403.41 345.88"><defs><style>.d{fill:#231f20;}</style></defs><g id="a"/><g id="b"><g id="c"><g><path class="d" d="M193.72,220.33V40.05h26.41V220.33h-26.41Zm23.36-55.86v-24.12h29.71c13.88,0,24.38-3.45,31.48-10.35,7.11-6.9,10.66-16.99,10.66-30.28,0-11.68-3.55-20.52-10.66-26.53-7.11-6.01-17.6-9.01-31.48-9.01h-29.2v-24.12h29.2c22.6,0,39.71,5.04,51.35,15.11,11.64,10.07,17.46,24.93,17.46,44.56,0,21.24-5.82,37.35-17.46,48.31-11.64,10.96-28.75,16.44-51.35,16.44h-29.71Z"/><path class="d" d="M49.83,220.14L101.88,39.86h36.82l52.05,180.27h-26.66L121.43,61.7h-2.29l-42.66,158.44h-26.66Zm24.12-43.93v-24.12h91.41v24.12H73.95Z"/><g><g><polygon class="d" points="70.61 221.53 53.29 270.97 87.93 270.97 70.61 221.53"/><polygon class="d" points="96.28 270.97 78.96 221.53 113.6 221.53 96.28 270.97"/><polygon class="d" points="42.17 270.97 24.85 221.53 59.49 221.53 42.17 270.97"/><polygon class="d" points="122.75 221.53 105.43 270.97 140.07 270.97 122.75 221.53"/><polygon class="d" points="17.32 221.53 0 270.97 34.64 270.97 17.32 221.53"/></g><g><polygon class="d" points="203.72 270.97 186.4 221.53 221.04 221.53 203.72 270.97"/><polygon class="d" points="229.39 221.53 212.07 270.97 246.71 270.97 229.39 221.53"/><polygon class="d" points="175.28 221.53 157.96 270.97 192.6 270.97 175.28 221.53"/><polygon class="d" points="255.86 270.97 238.54 221.53 273.18 221.53 255.86 270.97"/><polygon class="d" points="150.43 270.97 133.11 221.53 167.75 221.53 150.43 270.97"/></g><polygon class="d" points="334.17 221.53 316.85 270.97 351.49 270.97 334.17 221.53"/><polygon class="d" points="359.85 270.97 342.53 221.53 377.17 221.53 359.85 270.97"/><polygon class="d" points="305.73 270.97 288.41 221.53 323.05 221.53 305.73 270.97"/><polygon class="d" points="280.88 221.53 263.56 270.97 298.2 270.97 280.88 221.53"/></g></g></g></g></svg>