<?xml version="1.0" encoding="UTF-8"?><svg id="a" xmlns="http://www.w3.org/2000/svg" xmlns:xlink="http://www.w3.org/1999/xlink" viewBox="0 0 565 293"><defs><style>.aa{fill:url(#t);}.ab{fill:url(#r);}.ac{fill:url(#y);}.ad{fill:url(#l);}.ae{fill:url(#c);}.af{fill:url(#u);}.ag{fill:url(#v);}.ah{fill:url(#a`);}.ai{fill:url(#m);}.aj{fill:url(#f);}.ak{fill:url(#p);}.al{fill:url(#g);}.am{fill:url(#b);}.an{fill:url(#i);}.ao{fill:url(#h);}.ap{fill:url(#d);}.aq{fill:url(#e);}.ar{fill:none;stroke:#000;stroke-miterlimit:10;stroke-width:5px;}.as{fill:url(#x);}.at{fill:url(#s);}.au{fill:url(#n);}.av{fill:url(#w);}.aw{fill:url(#j);}.ax{fill:url(#o);}.ay{fill:url(#q);}.b{fill:url(#k);}</style><radialGradient id="b" cx="90.8" cy="205.11" fx="90.8" fy="205.11" r="86.86" gradientTransform="matrix(1, 0, 0, 1, 0, 0)" gradientUnits="userSpaceOnUse"><stop offset="0" stop-color="#ff3fef"/><stop offset="1" stop-color="#e90041"/></radialGradient><linearGradient id="c" x1="239.2" y1="227.59" x2="344.32" y2="227.59" gradientTransform="matrix(1, 0, 0, 1, 0, 0)" gradientUnits="userSpaceOnUse"><stop offset="0" stop-color="#be00bf"/><stop offset=".09" stop-color="#bf07bd"/><stop offset=".23" stop-color="#c51bb7"/><stop offset=".39" stop-color="#ce3dae"/><stop offset=".57" stop-color="#db6ba2"/><stop offset=".78" stop-color="#eba792"/><stop offset=".99" stop-color="#feee7f"/><stop offset="1" stop-color="#fff17f"/></linearGradient><radialGradient id="d" cx="468.17" cy="172.95" fx="468.17" fy="172.95" r="78.4" gradientTransform="matrix(1, 0, 0, 1, 0, 0)" gradientUnits="userSpaceOnUse"><stop offset="0" stop-color="#00006a"/><stop offset=".6" stop-color="#000ac4"/><stop offset=".83" stop-color="#000fe9"/></radialGradient><radialGradient id="e" cx="232.04" cy="37.8" fx="232.04" fy="37.8" r="65.48" gradientTransform="matrix(1, 0, 0, 1, 0, 0)" gradientUnits="userSpaceOnUse"><stop offset="0" stop-color="#c4ff6a"/><stop offset=".1" stop-color="#bcf968"/><stop offset=".26" stop-color="#a8e963"/><stop offset=".45" stop-color="#86d05c"/><stop offset=".66" stop-color="#58ad52"/><stop offset=".89" stop-color="#1d8045"/><stop offset="1" stop-color="#006a3f"/></radialGradient><radialGradient id="f" cx="45.54" cy="161.83" fx="45.54" fy="161.83" r="50.69" gradientTransform="matrix(1, 0, 0, 1, 0, 0)" gradientUnits="userSpaceOnUse"><stop offset="0" stop-color="#27d400"/><stop offset="1" stop-color="#006a65"/></radialGradient><radialGradient id="g" cx="202.3" cy="244.89" fx="202.3" fy="244.89" r="41.48" gradientTransform="matrix(1, 0, 0, 1, 0, 0)" gradientUnits="userSpaceOnUse"><stop offset="0" stop-color="#00617f"/><stop offset="1" stop-color="#001a55"/></radialGradient><radialGradient id="h" cx="433.92" cy="83.59" fx="433.92" fy="83.59" r="107.49" gradientTransform="matrix(1, 0, 0, 1, 0, 0)" gradientUnits="userSpaceOnUse"><stop offset="0" stop-color="#2a7fff"/><stop offset="1" stop-color="#65007f"/></radialGradient><radialGradient id="i" cx="348.86" cy="197.94" fx="348.86" fy="197.94" r="29.42" gradientTransform="matrix(1, 0, 0, 1, 0, 0)" gradientUnits="userSpaceOnUse"><stop offset="0" stop-color="#ff2a9b"/><stop offset="1" stop-color="#942100"/></radialGradient><radialGradient id="j" cx="69.15" cy="53.51" fx="69.15" fy="53.51" r="59.35" gradientTransform="matrix(1, 0, 0, 1, 0, 0)" gradientUnits="userSpaceOnUse"><stop offset="0" stop-color="#000fe9"/><stop offset="1" stop-color="#001a55"/></radialGradient><linearGradient id="k" x1="146.42" y1="144.28" x2="344.32" y2="144.28" gradientTransform="matrix(1, 0, 0, 1, 0, 0)" gradientUnits="userSpaceOnUse"><stop offset="0" stop-color="#fff100"/><stop offset=".09" stop-color="#f9ee07"/><stop offset=".22" stop-color="#eae71b"/><stop offset=".37" stop-color="#d0db3d"/><stop offset=".55" stop-color="#adca6b"/><stop offset=".75" stop-color="#80b5a7"/><stop offset=".96" stop-color="#4b9bee"/><stop offset="1" stop-color="#3f96ff"/></linearGradient><radialGradient id="l" cx="419.75" cy="260.85" fx="419.75" fy="260.85" r="103.09" gradientTransform="matrix(1, 0, 0, 1, 0, 0)" gradientUnits="userSpaceOnUse"><stop offset="0" stop-color="#ff2a00"/><stop offset="1" stop-color="#550025"/></radialGradient><radialGradient id="m" cx="69.15" cy="28" fx="69.15" fy="28" r="50.46" gradientTransform="matrix(1, 0, 0, 1, 0, 0)" gradientUnits="userSpaceOnUse"><stop offset="0" stop-color="#3ffcff"/><stop offset="1" stop-color="#0078d4"/></radialGradient><linearGradient id="n" x1="146.42" y1="109.49" x2="344.32" y2="109.49" gradientTransform="matrix(1, 0, 0, 1, 0, 0)" gradientUnits="userSpaceOnUse"><stop offset="0" stop-color="#7fffd6"/><stop offset="1" stop-color="#011aab"/></linearGradient><radialGradient id="o" cx="377.94" cy="172.95" fx="377.94" fy="172.95" r="47.57" gradientTransform="matrix(1, 0, 0, 1, 0, 0)" gradientUnits="userSpaceOnUse"><stop offset="0" stop-color="#00ffad"/><stop offset="1" stop-color="#006d94"/></radialGradient><radialGradient id="p" cx="192.81" cy="144.28" fx="192.81" fy="144.28" r="60.08" gradientTransform="matrix(1, 0, 0, 1, 0, 0)" gradientUnits="userSpaceOnUse"><stop offset="0" stop-color="#94ffb3"/><stop offset=".16" stop-color="#8ef7b8"/><stop offset=".4" stop-color="#7de3c7"/><stop offset=".69" stop-color="#62c1df"/><stop offset="1" stop-color="#3f96ff"/></radialGradient><linearGradient id="q" x1="135.8" y1="37.8" x2="183.3" y2="37.8" gradientTransform="matrix(1, 0, 0, 1, 0, 0)" gradientUnits="userSpaceOnUse"><stop offset="0" stop-color="#940018"/><stop offset=".44" stop-color="#c43729"/><stop offset="1" stop-color="#ff7a3f"/></linearGradient><radialGradient id="r" cx="250.47" cy="28.11" fx="250.47" fy="28.11" r="50.84" gradientTransform="matrix(1, 0, 0, 1, 0, 0)" gradientUnits="userSpaceOnUse"><stop offset="0" stop-color="#d4a000"/><stop offset=".17" stop-color="#d7a704"/><stop offset=".43" stop-color="#e0bb12"/><stop offset=".74" stop-color="#eedc28"/><stop offset="1" stop-color="#feff3f"/></radialGradient><radialGradient id="s" cx="197.77" cy="244.89" fx="197.77" fy="244.89" r="39.55" gradientTransform="matrix(1, 0, 0, 1, 0, 0)" gradientUnits="userSpaceOnUse"><stop offset="0" stop-color="#feff3f"/><stop offset="1" stop-color="#d4a000"/></radialGradient><linearGradient id="t" x1="277" y1="246.69" x2="373.85" y2="246.69" gradientTransform="matrix(1, 0, 0, 1, 0, 0)" gradientUnits="userSpaceOnUse"><stop offset="0" stop-color="#0069aa"/><stop offset="1" stop-color="#19006a"/></linearGradient><radialGradient id="u" cx="253.57" cy="252.98" fx="253.57" fy="252.98" r="31.28" gradientTransform="matrix(1, 0, 0, 1, 0, 0)" gradientUnits="userSpaceOnUse"><stop offset="0" stop-color="#36ff00"/><stop offset=".13" stop-color="#35f700"/><stop offset=".31" stop-color="#35e300"/><stop offset=".54" stop-color="#35c100"/><stop offset=".8" stop-color="#349300"/><stop offset="1" stop-color="#346a00"/></radialGradient><linearGradient id="v" x1="411.57" y1="74.5" x2="562.5" y2="74.5" gradientTransform="matrix(1, 0, 0, 1, 0, 0)" gradientUnits="userSpaceOnUse"><stop offset="0" stop-color="#ff3fd5"/><stop offset=".21" stop-color="#ff3fd2"/><stop offset=".33" stop-color="#ff41ca"/><stop offset=".43" stop-color="#ff43bb"/><stop offset=".52" stop-color="#ff47a7"/><stop offset=".61" stop-color="#ff4c8c"/><stop offset=".68" stop-color="#ff526c"/><stop offset=".76" stop-color="#ff5945"/><stop offset=".82" stop-color="#ff611a"/><stop offset=".83" stop-color="#ff6315"/></linearGradient><linearGradient id="w" x1="373.85" y1="218.5" x2="562.5" y2="218.5" gradientTransform="matrix(1, 0, 0, 1, 0, 0)" gradientUnits="userSpaceOnUse"><stop offset="0" stop-color="#ffef6a"/><stop offset="1" stop-color="#554000"/></linearGradient><radialGradient id="x" cx="45.54" cy="119.72" fx="45.54" fy="119.72" r="55.84" gradientTransform="matrix(1, 0, 0, 1, 0, 0)" gradientUnits="userSpaceOnUse"><stop offset="0" stop-color="#ff1549"/><stop offset=".27" stop-color="#ff1747"/><stop offset=".44" stop-color="#ff1f41"/><stop offset=".58" stop-color="#ff2e38"/><stop offset=".7" stop-color="#ff422a"/><stop offset=".81" stop-color="#ff5c19"/><stop offset=".83" stop-color="#ff6315"/></radialGradient><linearGradient id="y" x1="2.5" y1="238.22" x2="35.52" y2="238.22" gradientTransform="matrix(1, 0, 0, 1, 0, 0)" gradientUnits="userSpaceOnUse"><stop offset="0" stop-color="#fdff15"/><stop offset="1" stop-color="#ff0063"/></linearGradient><radialGradient id="a`" cx="130.33" cy="146.5" fx="130.33" fy="146.5" r="107.51" gradientTransform="matrix(1, 0, 0, 1, 0, 0)" gradientUnits="userSpaceOnUse"><stop offset="0" stop-color="#00d4a8"/><stop offset="1" stop-color="#006a21"/></radialGradient></defs><g>
    
    <polygon class="am" points="81.55 119.72 2.5 290.5 179.11 290.5 81.55 119.72"/><path d="M81.55,119.77C62.07,162.07,22.52,249.21,2.5,290.35c-.05,.46,178.71-1.43,176.21,.38-27.25-47.61-69.9-122.63-97.16-170.95h0Zm0-.1c24.19,42.73,74.89,128.37,97.79,171.23-.04,.26-176.72-.36-176.83-.24,18.77-42.59,59.26-128.5,79.05-170.98h0Z"/></g><g>

    <polygon class="ae" points="344.32 164.67 239.2 215.46 277 290.5 344.32 164.67"/><path d="M344.28,164.71c-30.02,14.48-75.75,37.71-104.89,50.66,10.4,21.04,27.24,53.79,37.98,74.95h-.75l16.69-31.38c10.69-19.96,39.8-73.65,50.97-94.23h0Zm.07-.07c-11.12,21.08-39.17,74.22-50.02,94.51l-16.97,31.55c-.11,.21-.36,.28-.57,.18-10.84-21.3-26.97-54.28-37.79-75.32,29.36-15.31,74.98-36.23,105.35-50.92h0Z"/></g><g>

    <polygon class="ap" points="411.57 114.69 373.85 231.21 562.5 146.5 411.57 114.69"/><path d="M411.94,114.76c-.25,.16-37.52,116.32-37.74,116.56l-.51-.46c.09,.25,189.19-85.3,188.77-84.21l-150.53-31.89h0Zm-.73-.15c.4,.18,151.28,31.46,151.45,31.92,.11,.18-188.64,84.92-188.66,85.02-.28,.14-.62-.16-.51-.46l37.71-116.49h0Z"/></g><g>

    <polygon class="aq" points="317.65 53.72 183.3 2.5 146.42 73.1 317.65 53.72"/><path d="M317.14,53.78c-39.76-14.82-95.02-35.6-134.08-50.68l.79-.3-37.05,70.51c-2.99-1.53,170.91-19,170.34-19.53h0Zm1.02-.12c-.96-.33-171.61,20.71-172.18,19.49-.3-.2,36.84-70.75,36.74-70.95,.15-.29,.49-.41,.79-.3,39.09,14.63,95.13,36.44,134.65,51.75h0Z"/></g><g>

    <polygon class="aj" points="88.58 104.52 2.5 185.93 35.52 219.15 88.58 104.52"/><path d="M88.56,104.56C63.98,127.93,26.93,163.96,2.62,185.82c9.49,9.68,23.45,23.35,33.14,33.1l-.55,.1c16.76-37.14,36.03-77.4,53.34-114.45h0Zm.06-.08c-9.39,20.4-30.11,66.43-39.34,86.08-4.45,9.61-8.94,19.19-13.45,28.74-.08,.17-.28,.24-.45,.17-9.75-9.86-23.34-23.73-33-33.41,23.85-23.76,61.32-58.09,86.23-81.58h0Z"/></g><g>
    
    <polygon class="al" points="165.39 199.29 230.15 290.5 239.2 215.46 165.39 199.29"/><path d="M165.43,199.32c19.36,26.58,46.19,64.6,64.86,91.08l-.33,.08c2.13-18.72,6.51-56.37,8.71-75.08l.41,.58-18.31-4.05c-12.38-2.91-42.56-9.63-55.34-12.61h0Zm-.08-.06c13.13,2.92,42.67,8.85,55.37,11.65l18.59,4.03c.27,.06,.44,.31,.41,.58-2.31,18.7-7.01,56.32-9.4,75-.01,.16-.24,.22-.33,.08-18.85-26.33-45.94-64.36-64.65-91.34h0Z"/></g><g>

    <polygon class="ao" points="562.5 2.5 305.34 2.5 344.32 164.67 562.5 2.5"/><path d="M562.45,2.52c-74.05,.09-184.81,.89-256.92-.06,10.84,45.91,28.04,115.66,39.22,162.11C395.32,124.62,509.08,42.65,562.45,2.52h0Zm.09-.03c-54.26,40.63-163.52,122.18-217.96,162.55-.25,.19-.64,.05-.71-.26l-19.3-81.13c-5.42-22.98-13.93-58.41-19.43-81.1,72.99-1.07,183.22-.02,257.4-.06h0Z"/></g><g>

    <polygon class="an" points="373.85 231.21 323.88 202.88 344.32 164.67 373.85 231.21"/><path d="M373.88,231.25c-14.62-8.1-35.94-19.69-50.12-28.16-.11-.06-.15-.2-.09-.32,3.02-5.47,7.3-13.47,10.26-19.08l10.02-19.21c.11-.2,.36-.28,.56-.18,8.76,18.51,21.09,47.94,29.37,66.94h0Zm-.07-.07c-8.59-18.72-21.81-47.65-29.87-66.33l.75,.03c-3.48,6.33-12.29,22.38-15.56,28.53-1.68,3.2-3.39,6.38-5.04,9.59l-.09-.32,12.47,6.88c8.38,4.74,28.76,16.6,37.35,21.61h0Z"/></g><g>
    
    <polygon class="aw" points="135.8 2.5 2.5 53.51 88.58 104.52 135.8 2.5"/><path d="M135.77,2.53C102.86,15.19,35.09,41.97,2.58,53.38l86.27,50.69-.73,.23c13.4-28.99,33.88-72.51,47.65-101.76h0Zm.07-.07c-13.6,29.67-33.15,73.05-46.79,102.27-.13,.28-.47,.39-.73,.23L2.42,53.64C34.82,40.22,102.67,15.09,135.84,2.47h0Z"/></g><g>

    <polygon class="b" points="146.42 73.1 239.2 215.46 344.32 164.67 146.42 73.1"/><path d="M146.89,73.32c27.65,41.84,65.98,100.25,92.87,141.78l-.84-.24,105.22-50.58c1.74,2.92-197.46-91.74-197.24-90.97h0Zm-.94-.44c.78,.84,198.77,90.57,198.77,91.97,.17,.4-105.18,50.96-105.22,51.21-28.23-39.87-65.91-101.35-93.55-143.18h0Z"/></g><g>
    
    <polygon class="ad" points="373.85 231.21 277 290.5 562.5 290.5 373.85 231.21"/><path d="M373.85,231.26c-12,7.5-36.29,22.46-48.33,29.88l-48.3,29.73-.23-.81c66.06,.16,148.09,.38,214.13,.08l71.38-.11-.14,.91c-53.62-16.76-134.32-42.35-188.51-59.69h0Zm-.01-.1c54.6,16.95,134.96,41.79,188.8,58.9,.25,.08,.38,.34,.31,.58-.06,.2-.25,.33-.45,.33l-71.38-.11c-66.03-.3-148.09-.08-214.13,.08-.42,.02-.6-.61-.23-.81l48.55-29.56c12.1-7.35,36.39-22.13,48.52-29.41h0Z"/></g><g>

    <polygon class="ai" points="2.5 2.5 2.5 53.51 135.8 2.5 2.5 2.5"/><path d="M2.54,2.54c.25,14.99,.29,36.22,.38,50.97l-.56-.38c11.09-4.3,22.2-8.54,33.33-12.73C67.92,28.47,103.44,14.63,135.65,2.09l.16,.84-33.23,.08c-21.1,.05-78.21-.33-100.04-.48h0Zm-.07-.07l66.5-.43c16.64-.05,50.2-.05,66.84,.03,.24,0,.44,.19,.44,.43,0,.19-.12,.35-.28,.41-19.78,7.46-47.33,17.78-66.75,25.26C47.02,36.74,24.92,45.53,2.65,53.89c-.26,.1-.57-.1-.56-.38-.09-14.81,.31-36.04,.38-51.04h0Z"/></g><g>

    <polygon class="au" points="146.42 73.1 344.32 164.67 317.65 54.3 146.42 73.1"/><path d="M146.47,73.11c56.95,26.25,142.79,65.17,197.67,91.61-7.7-31.3-19.42-79.35-26.93-110.3l.5,.35-42.67,4.69c-28.9,3.04-98.75,10.58-128.56,13.66h0Zm-.1-.02c30.45-3.26,98.86-11.45,128.29-14.54l42.94-4.71c.24-.03,.45,.13,.5,.35,7.28,30.87,19.39,79.55,26.26,110.66-56.41-25.81-141.04-65.13-198-91.77h0Z"/></g><g>

    <polygon class="ax" points="344.32 164.67 373.85 231.21 411.57 114.69 344.32 164.67"/><path d="M344.37,164.69c9.49,20.73,20.7,45.48,29.84,66.36l-.74,.04c6.48-19.36,12.86-38.75,19-58.22,4.59-14.54,13.93-43.83,18.59-58.35l.82,.59c-18.73,13.92-48.44,35.67-67.52,49.57h0Zm-.1-.03c20.92-15.88,45.9-34.74,66.98-50.4,.39-.3,1,.11,.82,.59-4.74,14.52-14.32,43.68-19.13,58.17-6.44,19.37-12.63,38.82-18.72,58.31-.09,.33-.61,.37-.74,.04-9.36-20.81-20.21-45.74-29.21-66.71h0Z"/></g><g>

    <polygon class="ak" points="165.39 199.29 239.2 215.46 146.42 73.1 165.39 199.29"/><path d="M165.43,199.25c9.24,1.9,27.8,5.87,37.02,7.85l36.85,7.92-.47,.68c-26.04-40.59-65.95-101.59-92.82-142.33l.91-.35c5.36,35.15,13.44,90.62,18.52,126.23h0Zm-.07,.07c-5.57-35.74-14.25-90.75-19.43-126.15-.04-.27,.14-.52,.42-.57,.2-.03,.39,.06,.49,.22,26.55,41.23,66,102.01,92.74,142.39,.22,.31-.09,.78-.47,.68l-36.96-8.25c-9.18-2.06-27.63-6.19-36.79-8.32h0Z"/></g><g>

    <polygon class="ay" points="135.8 2.5 146.42 73.1 183.3 2.5 135.8 2.5"/><path d="M135.84,2.53c3.72,22.45,7.74,48.01,10.76,70.54l-.35-.06c3.12-5.86,6.17-11.75,9.21-17.65,8.77-17.21,18.43-36.11,27.38-53.09l.45,.75c-13.63-.05-33.59-.3-47.45-.48h0Zm-.08-.07c14.07-.08,33.63-.52,47.53-.48,.37,0,.64,.42,.45,.75-8.81,17.03-18.85,35.8-27.94,52.8-3.11,5.86-6.2,11.74-9.23,17.64-.07,.16-.33,.12-.35-.06-3.74-22.47-7.42-48.08-10.47-70.66h0Z"/></g><g>

    <polygon class="ab" points="183.3 2.5 317.65 53.72 305.34 2.5 183.3 2.5"/><path d="M183.34,2.51c39.55,14.66,95.53,36.21,134.38,51.01-.47,1.7-12.68-51.33-12.84-50.91l.45,.35-30.36,.04c-27.2-.07-64.43-.42-91.64-.49h0Zm-.1-.02c27.16-.08,64.27-.42,91.43-.49l30.67,.04c.22,0,.4,.15,.45,.36l12.07,51.28c.04,.16-.13,.32-.28,.25-38.8-14.79-95.12-36.09-134.33-51.43h0Z"/></g><g>

    <polygon class="at" points="179.11 290.5 230.15 290.5 165.39 199.29 179.11 290.5"/><path d="M179.14,290.46l51.01-.41-.37,.71c-18.26-26.56-45.7-64.67-64.78-91.19l.87-.35,3.45,22.71c2.33,15.24,7.58,52.75,9.82,68.54h0Zm-.07,.08c-1.81-11.32-5.45-34.09-7.23-45.42-2.14-13.25-4.9-32.3-6.93-45.76-.04-.26,.14-.51,.4-.55,.19-.03,.37,.06,.47,.2l32.13,45.78c7.77,11.01,16.51,23.11,24.38,34.13l8.22,11.31c.15,.2,.1,.48-.1,.63-.14,.3-51.12-.45-51.34-.33h0Z"/></g><g>

    <polygon class="aa" points="323.88 202.88 277 290.5 373.85 231.21 323.88 202.88"/><path d="M324.18,203.05c-.16,.04-46.73,87.46-46.91,87.6-2.41-.37,97.01-59.26,96.52-59.53,.45,.69-49.7-28.23-49.61-28.07h0Zm-.61-.34l.3,.17c0,.18,50.4,28.1,50.02,28.42l-96.74,59.47c-.25,.17-.61-.15-.44-.42l46.86-87.64h0Z"/></g><g>

    <polygon class="af" points="230.15 290.5 277 290.5 239.2 215.46 230.15 290.5"/><path d="M230.18,290.47c13.76-.24,33.26-.43,46.81-.4l-.38,.62c-10.6-21.87-26.51-53.11-37.84-75.02l.9-.16c-.74,6.23-1.43,12.44-2.22,18.66-1.49,12.54-5.58,43.34-7.28,56.29h0Zm-.07,.07c1.53-13.26,4.68-43.45,6.31-56.27,.73-6.29,1.54-12.58,2.31-18.86,.03-.26,.27-.45,.53-.42,.16,.02,.3,.13,.37,.26l18.62,37.66c6.21,12.55,12.79,24.91,19.13,37.4,.15,.27-.07,.63-.38,.62-13.61,.13-33.09-.25-46.89-.4h0Z"/></g><g>

    <polygon class="ag" points="411.57 114.69 562.5 146.5 562.5 2.5 411.57 114.69"/><path d="M411.62,114.67c26.24,5.46,88.04,18.09,113.33,23.52l37.61,8.03-.34,.27c.28-40.22-.09-103.33-.17-144l.72,.36c-37.55,28.01-113.4,84.07-151.15,111.81h0Zm-.1,.02c37.48-28.17,113.04-84.65,150.71-112.56,.28-.22,.74,0,.72,.36-.17,40.86-.37,103.61-.17,144,0,.17-.17,.31-.34,.27l-37.85-7.87c-25.15-5.21-87.14-18.67-113.07-24.2h0Z"/></g><g>

    <polygon class="av" points="373.85 231.21 562.5 290.5 562.5 146.5 373.85 231.21"/><path d="M374.33,230.99c47.15,14.55,141.33,44.03,188.36,58.9l-.83,.61,.26-144c2.87,.26-188.44,84.31-187.79,84.49h0Zm-.98,.44c1.05,.11,188.77-86.3,189.52-84.93l.26,144c0,.35-.28,.64-.64,.64-47.25-14.68-142.03-44.67-189.14-59.71h0Z"/></g><g>

    <polygon class="as" points="2.5 53.51 2.5 185.93 88.58 104.52 2.5 53.51"/><path d="M2.52,53.55c.22,30.69,.45,68.67,.22,99.34-.05,11-.13,22.02-.05,33.04l-.34-.15c21.34-20.42,64.42-61.35,85.87-81.64l.09,.82C64.35,90.7,26.7,68.09,2.52,53.55h0Zm-.05-.09c14.4,8.42,50.82,29.71,64.73,37.84l21.65,12.77c.29,.17,.34,.59,.09,.82C67.35,124.84,23.96,167.03,2.3,185.93c-.03-42.7-.28-89.69,.18-132.47h0Z"/></g><g>

    <polygon class="ac" points="35.52 219.15 2.5 290.5 2.5 185.93 35.52 219.15"/><path d="M35.83,219.46L2.8,290.64c-.13,.31-.64,.21-.63-.14l.23-104.57c.17-.55,32.95,33.29,33.13,33.22l.31,.31h0Zm-.62-.62S1.94,185.79,2.6,185.93l.23,104.57-.63-.14,32.83-71.12,.18-.4h0Z"/></g><g>

    <polygon class="ah" points="135.8 2.5 81.55 119.72 179.11 290.5 135.8 2.5"/><path d="M135.8,2.55c-13.24,29.38-40.4,88.11-54.11,117.24-.27-.73,97.9,170.68,97.81,170.49l-.85,.3c-10.83-71.76-32.3-216.23-42.86-288.02h0Zm.01-.1c11.03,71.76,32.99,216.19,43.75,287.98,.04,.25-.13,.48-.38,.52-.19,.03-.37-.07-.47-.23,.03-.04-97.46-170.99-97.3-171.07,13.34-29.28,40.6-88.15,54.4-117.21h0Z"/></g>

    <rect class="ar" x="2.5" y="2.5" width="560" height="288"/></svg>