<?xml version="1.0" encoding="UTF-8"?><svg id="Layer_2" xmlns="http://www.w3.org/2000/svg" xmlns:xlink="http://www.w3.org/1999/xlink" viewBox="0 0 496.9 392.08"><defs><style>.cls-1{fill:url(#radial-gradient-2);stroke:#666;stroke-width:1.05px;}.cls-1,.cls-2,.cls-3,.cls-4,.cls-5,.cls-6,.cls-7{stroke-miterlimit:10;}.cls-2{fill:#666;}.cls-2,.cls-4{stroke-width:.38px;}.cls-2,.cls-4,.cls-6{stroke:#000;}.cls-3{stroke-width:1.32px;}.cls-3,.cls-5{fill:lime;stroke:#009245;}.cls-4{fill:#999;}.cls-8{fill:#006837;}.cls-5{filter:url(#drop-shadow-1);stroke-width:1.62px;}.cls-6{fill:url(#radial-gradient);stroke-width:1.55px;}.cls-7{fill:#39b54a;stroke:#006837;stroke-width:1.14px;}</style><filter id="drop-shadow-1" filterUnits="userSpaceOnUse"><feOffset dx="6.1" dy="7.62"/><feGaussianBlur result="blur" stdDeviation="12.19"/><feFlood flood-color="#000" flood-opacity=".75"/><feComposite in2="blur" operator="in"/><feComposite in="SourceGraphic"/></filter><radialGradient id="radial-gradient" cx="488.66" cy="112.06" fx="613.31" fy="43.26" r="142.38" gradientTransform="translate(-199.48 417.1) rotate(-54)" gradientUnits="userSpaceOnUse"><stop offset=".02" stop-color="#4a4a4a"/><stop offset=".2" stop-color="#373737"/><stop offset=".52" stop-color="#191919"/><stop offset=".8" stop-color="#060606"/><stop offset="1" stop-color="#000"/></radialGradient><radialGradient id="radial-gradient-2" cx="-345.28" cy="-446.71" fx="-345.28" fy="-446.71" r="15.74" gradientTransform="translate(569.01 499.62) rotate(-20.12)" gradientUnits="userSpaceOnUse"><stop offset=".02" stop-color="#1b1b1b"/><stop offset=".63" stop-color="#0b0b0b"/><stop offset="1" stop-color="#000"/></radialGradient></defs><g id="Layer_1-2"><g><rect class="cls-8" x="52.41" y="-52.41" width="392.08" height="496.9" transform="translate(52.41 444.49) rotate(-90)"/><g><path class="cls-7" d="M75.28,281.64l-27.68-140.86c-2.93-14.93,8.5-32.22,23.2-35.11L373.17,48.74c11.02-2.17,21.73,5.15,23.93,16.34l29.03,147.76c3.14,15.96-7.07,31.41-22.79,34.5l-293.76,57.72c-15.79,3.1-31.15-7.38-34.3-23.41Z"/><rect class="cls-5" x="142.65" y="-5.86" width="191.79" height="351.61" rx="23.33" ry="23.33" transform="translate(359.31 -96.89) rotate(78.88)"/><rect class="cls-6" x="148.84" y="-.22" width="180" height="340.21" rx="22.24" ry="22.24" transform="translate(359.49 -97.22) rotate(78.88)"/><circle class="cls-1" cx="91.16" cy="198.9" r="15.74"/><rect class="cls-2" x="379.08" y="135.31" width="34.45" height="7.28" rx="2.39" ry="2.39" transform="translate(456.25 -276.71) rotate(78.88)"/><circle class="cls-4" cx="391.21" cy="113" r="3.1"/><rect class="cls-3" x="342.92" y="247.12" width="34.42" height="6.54" rx="3.27" ry="3.27" transform="translate(-41.52 74.13) rotate(-11.12)"/></g></g></g></svg>